<?xml version="1.0" encoding="utf-8"?>
<!-- Generator: Adobe Illustrator 26.2.0, SVG Export Plug-In . SVG Version: 6.00 Build 0)  -->
<svg version="1.1" id="Layer_1" xmlns="http://www.w3.org/2000/svg" xmlns:xlink="http://www.w3.org/1999/xlink" x="0px" y="0px"
	 viewBox="0 0 200 200" style="enable-background:new 0 0 200 200;" xml:space="preserve">
<style type="text/css">
	.st0{fill:none;stroke:#099DFD;stroke-width:10;stroke-linecap:round;stroke-miterlimit:10;}
</style>
<g>
	<g>
		<path class="st0" d="M73.6,140.6c9.2,13.1,24.4,21.6,41.6,21.6H166v-50.9c0-23.4-15.8-43.1-37.4-49"/>
		<path class="st0" d="M115.2,60.4c4.7,0,9.2,0.6,13.5,1.8c-9-14.1-24.8-23.4-42.8-23.4C57.7,38.8,35,61.6,35,89.7v50.9h38.6
			c-5.8-8.3-9.3-18.4-9.3-29.3C64.3,83.2,87.1,60.4,115.2,60.4z"/>
	</g>
	<line class="st0" x1="96" y1="111.3" x2="138" y2="111.3"/>
	<line class="st0" x1="96" y1="91.3" x2="138" y2="91.3"/>
	<line class="st0" x1="96" y1="131.2" x2="138" y2="131.2"/>
</g>
</svg>
