<?xml version="1.0" encoding="utf-8"?>
<!-- Generator: Adobe Illustrator 25.2.1, SVG Export Plug-In . SVG Version: 6.00 Build 0)  -->
<svg version="1.1" id="Layer_1" xmlns="http://www.w3.org/2000/svg" xmlns:xlink="http://www.w3.org/1999/xlink" x="0px" y="0px"
	 viewBox="0 0 200 200" style="enable-background:new 0 0 200 200;" xml:space="preserve">
<style type="text/css">
	.st0{fill:none;stroke:#099DFD;stroke-width:10;stroke-linecap:round;stroke-miterlimit:10;}
</style>
<path class="st0" d="M70.9,71.4c0,0-0.1,0.1-0.1,0.1c-15.8,15.8-15.8,41.3,0,57.1c0,0,0,0,0,0"/>
<path class="st0" d="M48.5,49l-0.1,0.1c-28.1,28.1-28.1,73.8,0,101.9"/>
<path class="st0" d="M129.1,128.6c0,0,0.1-0.1,0.1-0.1c15.8-15.8,15.8-41.3,0-57.1c0,0,0,0,0,0"/>
<path class="st0" d="M151.5,151l0.1-0.1c28.1-28.1,28.1-73.8,0-101.9"/>
<g>
	<line class="st0" x1="82.5" y1="98.9" x2="116.8" y2="98.9"/>
	<line class="st0" x1="99.7" y1="81.7" x2="99.7" y2="116"/>
</g>
</svg>
