<?xml version="1.0" encoding="UTF-8"?><svg id="Layer_1" xmlns="http://www.w3.org/2000/svg" viewBox="0 0 200 200"><defs><style>.cls-1{fill:#099dfd;stroke:#099dfd;stroke-miterlimit:10;stroke-width:2px;}</style></defs><path class="cls-1" d="M145.92,115.34c1.72,1.6,1.82,4.09,.54,12.47l-.86,5.19c-.32,2.29-1.5,4.29-3.22,5.99l-37.02,34.42c-4.51,4.19-11.8,4.19-16.31,0l-5.36-5.09c-4.51-4.19-4.51-10.97,0-15.16l37.02-34.42c1.72-1.6,3.86-2.59,6.22-2.99l5.47-.8c9.12-1.3,11.7-1.3,13.52,.4Zm-6.44,5.99l-.97,.1-1.61,.2c-1.4,.2-3.11,.4-5.04,.7l-3.65,.6c-.75,.1-1.5,.5-2.04,1l-37.02,34.42c-1.5,1.4-1.5,3.69,0,5.09l5.47,5.09c1.5,1.4,3.97,1.4,5.37,0l37.02-34.42c.54-.5,.97-1.2,1.07-2l.43-2.39c.43-2.59,.75-4.79,.97-6.58v-1.8Zm16.2-88.69c10.3,0,18.67,7.48,19.1,17.06v79.21c0,9.58-8.05,17.36-18.35,17.76h-6.12c-2.15,0-3.86-1.6-3.86-3.59,0-1.8,1.5-3.29,3.33-3.49h5.69c6.12,0,11.16-4.39,11.48-10.08V50.49c0-5.69-4.72-10.38-10.84-10.67H44.52c-6.12,0-11.16,4.39-11.48,10.08v79.01c0,5.69,4.72,10.38,10.84,10.67h32.08c2.15,0,3.86,1.6,3.86,3.59,0,1.8-1.5,3.29-3.33,3.49h-31.98c-10.3,0-18.67-7.48-19.1-17.06V50.49c0-9.58,8.05-17.36,18.35-17.76h.86c-.11-.1,111.06-.1,111.06-.1Zm-53.87,78.41c2.15,0,3.86,1.6,3.86,3.59,0,1.8-1.5,3.29-3.33,3.49H54.18c-2.15,0-3.86-1.6-3.86-3.59,0-1.8,1.5-3.29,3.33-3.49h48.18Zm-47.64-24.94h91.96c2.15,0,3.86,1.6,3.86,3.59,0,1.8-1.5,3.29-3.33,3.49H54.18c-2.15,0-3.86-1.6-3.86-3.59s1.72-3.49,3.86-3.49Zm91.96-24.94c2.15,0,3.86,1.6,3.86,3.59s-1.72,3.59-3.86,3.59H54.18c-2.15,0-3.86-1.6-3.86-3.59s1.72-3.59,3.86-3.59h91.96Z"/><path class="cls-1" d="M97.21,177.19c-3.33,0-6.33-1.2-8.69-3.39l-5.47-5.09c-2.36-2.19-3.65-4.99-3.65-8.08s1.29-5.89,3.65-8.08l37.02-34.42c1.82-1.7,4.18-2.79,6.65-3.19l5.47-.8c8.91-1.3,12.02-1.4,14.16,.6,2.04,1.9,2.04,4.79,.75,13.17l-.86,5.19c-.43,2.39-1.61,4.59-3.43,6.38l-37.02,34.42c-2.15,2.1-5.26,3.29-8.58,3.29Zm44.32-62.45c-1.93,0-4.72,.3-8.91,.9l-5.47,.8c-2.25,.3-4.18,1.3-5.79,2.79l-37.02,34.42c-2.04,1.9-3.11,4.39-3.11,6.98s1.07,5.19,3.11,6.98l5.37,4.99c4.18,3.89,10.94,3.89,15.13,0l37.02-34.42c1.61-1.5,2.68-3.39,3-5.49l.86-5.19c1.29-8.18,1.18-10.48-.32-11.87-.86-.5-1.82-.9-3.86-.9Zm-44.32,55.37c-1.18,0-2.36-.4-3.33-1.3l-5.47-4.99c-1.82-1.7-1.82-4.39,0-6.09l37.02-34.42c.64-.6,1.61-1.1,2.47-1.2l3.76-.6c1.93-.3,3.65-.5,5.04-.7l3.54-.4-.32,2.59c-.21,1.7-.54,3.89-.97,6.58l-.43,2.39c-.11,.9-.64,1.8-1.29,2.39l-37.02,34.42c-.64,.9-1.82,1.3-3,1.3Zm41.42-47.99l-1.61,.2c-1.4,.2-3.11,.4-5.04,.7l-3.65,.6c-.64,.1-1.18,.4-1.61,.8l-37.02,34.42c-1.18,1.1-1.18,2.89,0,3.99l5.47,4.99c1.18,1.1,3.11,1.1,4.29,0l37.02-34.42c.43-.4,.75-1,.86-1.6l.43-2.39c.43-2.69,.75-4.89,.97-6.58l-.11-.7Zm11.8,25.34c-1.29,0-2.36-.5-3.33-1.3-.86-.8-1.4-1.9-1.4-3.09,0-2.2,1.72-3.99,4.08-4.29h5.79c5.69,0,10.3-4.09,10.62-9.38V50.49c0-5.29-4.4-9.58-10.09-9.88H44.42c-5.69,0-10.3,4.09-10.62,9.38v79.01c0,5.29,4.4,9.58,10.09,9.88h32.08c2.58,0,4.61,1.9,4.61,4.29,0,2.19-1.72,3.99-4.08,4.29H44.42c-10.73,0-19.53-7.78-19.96-17.76V50.49c0-9.98,8.37-18.16,19.1-18.56h112.02c10.73,0,19.53,7.78,19.96,17.76v79.21c0,9.98-8.37,18.16-19.1,18.56h-6.01Zm0-7.18h-.43c-1.5,.2-2.58,1.4-2.58,2.79,0,.8,.32,1.5,.86,2,.54,.5,1.29,.8,2.15,.8h6.12c9.87-.4,17.49-7.88,17.49-17.06V49.69c-.43-9.18-8.48-16.26-18.35-16.26H43.67c-9.87,.4-17.49,7.88-17.49,17.06v79.21c.43,9.18,8.48,16.26,18.35,16.26h31.87c1.5-.2,2.58-1.4,2.58-2.79,0-1.6-1.4-2.79-3-2.79H43.77c-6.55-.4-11.59-5.39-11.59-11.37V49.89c.43-6.09,5.79-10.77,12.23-10.77h111.92c6.55,.4,11.59,5.39,11.59,11.37v79.01c-.43,6.09-5.79,10.77-12.23,10.77h-5.26Zm-96.25-21.35c-1.29,0-2.36-.5-3.33-1.3-.86-.8-1.4-1.9-1.4-3.09,0-2.19,1.72-3.99,4.08-4.29h48.29c1.29,0,2.36,.5,3.33,1.3,.86,.8,1.39,1.9,1.39,3.09,0,2.19-1.72,3.99-4.08,4.29H54.18Zm0-7.18h-.43c-1.5,.2-2.58,1.4-2.58,2.79,0,.8,.32,1.5,.86,2,.54,.5,1.29,.8,2.15,.8h48.07c1.5-.2,2.58-1.4,2.58-2.79,0-.8-.32-1.5-.86-2-.54-.5-1.29-.8-2.15-.8H54.18Zm0-17.76c-2.58,0-4.61-1.9-4.61-4.29s2.04-4.29,4.61-4.29h91.96c1.29,0,2.36,.5,3.33,1.3,.86,.8,1.4,1.9,1.4,3.09,0,2.2-1.72,3.99-4.08,4.29h-.54l-92.07-.1Zm0-7.18c-1.72,0-3,1.3-3,2.79,0,1.6,1.4,2.79,3,2.79h92.39c1.5-.2,2.58-1.4,2.58-2.79,0-.8-.32-1.5-.86-2-.54-.5-1.29-.8-2.15-.8H54.18Zm91.96-17.76H54.18c-2.58,0-4.61-1.9-4.61-4.29s2.04-4.29,4.61-4.29h91.96c2.58,0,4.61,1.9,4.61,4.29s-2.04,4.29-4.61,4.29Zm-91.96-7.18c-1.72,0-3,1.3-3,2.79,0,1.6,1.4,2.79,3,2.79h91.96c1.72,0,3-1.3,3-2.79,0-1.6-1.39-2.79-3-2.79H54.18Z"/></svg>